<svg xmlns="http://www.w3.org/2000/svg" viewBox="0 0 154.47 226.7"><defs><style>.cls-1{fill:#8c1c6c;}.cls-2{fill:#fc6440;}</style></defs><title>Asset 9</title><g id="Layer_2" data-name="Layer 2"><g id="Layer_1-2" data-name="Layer 1"><g id="logo"><path class="cls-1" d="M132.56,107.71C61.27,92.55,38.51,92.55,32.34,88.56,27,85.07,61.52,80.39,70.69,79.27H68.51c-1,0-2.06,0-3.06.06-9.79.56-28.69,2.06-53.26,5.67C-21,89.87,20.49,99.41,54,105.65s65.42,21.08,8.29,50.83C53.66,161,44.43,165.52,35,170c.06.06.06.12.12.18h0a8.92,8.92,0,0,1,1.37.07h0c.44.06.88.06,1.31.12h0c71.47-13.53,57.57,23.58,39.29,51a11.61,11.61,0,0,1-.37,4.11v.69c15.59-16,32.74-32.81,47-48.58C153.57,144.44,170.54,115.75,132.56,107.71Z"/><path class="cls-2" d="M70.38,0a29,29,0,0,0-29,29c0,17.15,29,50.2,29,50.2s29-31.8,29-50.2A29,29,0,0,0,70.38,0Zm-.81,35.67a7.86,7.86,0,1,1,7.86-7.85A7.82,7.82,0,0,1,69.57,35.67Z"/><path class="cls-2" d="M76.68,225.76v.94l33.11-68L35,170H35a9.65,9.65,0,0,1,1.31.06h0c.25,0,.5.06.81.06h0a.93.93,0,0,1,.43.07h0l1.19.18h.06c.38.07.75.19,1.12.25h0c.38.13.75.25,1.06.38h.07c.37.12.68.31,1.06.43h0a12.48,12.48,0,0,1,1.93,1.13h0l33.62,9.66-.82,37.67c.07.25.13.56.19.81a10.36,10.36,0,0,1-.31,4.56Z"/><polygon class="cls-2" points="76.8 219.96 76.68 226.7 79.11 221.65 76.8 219.96"/><polygon class="cls-1" points="76.68 226.7 83.16 219.47 77.36 225.33 76.68 226.7"/><polygon class="cls-2" points="35.14 170.07 44 172.63 43.81 169.63 35.14 170.07"/></g></g></g></svg>