<svg xmlns="http://www.w3.org/2000/svg" xmlns:xlink="http://www.w3.org/1999/xlink" viewBox="0 0 157.78 180.55"><defs><style>.cls-1{fill:none;}.cls-2{isolation:isolate;}.cls-3,.cls-4{fill:#624622;}.cls-10,.cls-13,.cls-15,.cls-20,.cls-4{mix-blend-mode:multiply;}.cls-5{fill:#d2d7db;}.cls-10,.cls-6{fill:#dfe4e8;}.cls-7{fill:#c3c8cd;}.cls-8{fill:#fff;}.cls-9{fill:#3f3a3b;}.cls-11,.cls-12,.cls-13{fill:#2b2d2e;}.cls-12,.cls-16,.cls-21{mix-blend-mode:screen;}.cls-14{fill:#db5816;}.cls-15,.cls-16{fill:#bb1a1f;}.cls-17{fill:#656668;}.cls-18{clip-path:url(#clip-path);}.cls-19,.cls-20,.cls-21{fill:#f36e40;}</style><clipPath id="clip-path"><path id="SVGID" class="cls-1" d="M115.66,60.79A11,11,0,0,0,114.8,58c.07-.14.13-.28.19-.42,1.91-5.24-9.56-14.24-25.62-20.1S58.73,31.07,56.82,36.3a3.1,3.1,0,0,0-.15.6c-4.9,3.43-7.89,9.5-9.84,14.93-2.75,7.66-1.75,15.91.43,23.6,1,3.68,2.24,7.32,4.7,10.31a25.06,25.06,0,0,0,8.09,6A84.71,84.71,0,0,0,70.3,96.36a29.13,29.13,0,0,0,6.24,1.09,36.1,36.1,0,0,0,5.79.23,39.85,39.85,0,0,0,14.52-3.61,26.84,26.84,0,0,0,11.26-9.58,63.59,63.59,0,0,0,4.13-7.67,37.45,37.45,0,0,0,3.09-7.7A22,22,0,0,0,115.66,60.79Z"/></clipPath></defs><title>12</title><g class="cls-2"><g id="Layer_2" data-name="Layer 2"><g id="Layer_2-2" data-name="Layer 2"><g id="itm2boc0"><path class="cls-3" d="M157.09,72.29c-1-.64-2.87,0-3.88.12-3.67.51-7.32,1.15-11,1.61l2.36-1.86L145.62,71a6,6,0,0,1,.59-.22c1.36-.42,3.43.72,4.24-.79,1.06-2-3.08-1.21-3.74-1.2a2.92,2.92,0,0,0-1.05.2c-.28-.23-.27-.44,0-.64s.47-.74.71-1.1c.8-1.19,1.69-2.32,2.44-3.54.31-.52,1.15-1.71,1-2.38s-1.05-1-1.7-1.42c-.9-.53-1.62,1.23-1.85,1.73-1,2.28-2,4.56-3.2,6.77a20.61,20.61,0,0,1-2.4,3.59l-2,1.58L131.85,79a.32.32,0,0,0-.17.12l0,0-.9.71c-.44-.14-.6-1.22-.63-1.43-.08-.44-.22-.89-.31-1.34-.2-1.11-.43-2.2-.71-3.29-.52-2-1.19-4-1.76-5.94-.23-.78-1.14-3.88-2.39-2.69-.78.73-1.73,2-1.6,3.12.06.59.93,1.11,1.28,1.53a8.3,8.3,0,0,1,1.49,3,35.56,35.56,0,0,1,1.37,6.18c.39,3.55-1.07,5.46-3.28,8L113.35,99.64l1.16,2.59L127,88c.17-.13.33-.25.51-.37a8.45,8.45,0,0,1,2.3-1.09l2.93-.42A10,10,0,0,0,134.2,86a14.61,14.61,0,0,0,4.69-1.39c.77-.49.2-1.52-.23-2-.59-.72-2,0-2.82.47l-2.37.65L129,84.73l5.73-4.3,3.9-3.17c2.25-1.81,5,.23,7.34.74.61.14,1.48.65,2.13.49s1.39-.83,1-1.56-1.4-1.11-2.3-1.45l2.59-.21c.75,0,1.5,0,2.25-.07a40.17,40.17,0,0,1,4.91.25c1.08.08,1.34-1.64,1.11-2.36A1.34,1.34,0,0,0,157.09,72.29Z"/><path class="cls-4" d="M125.11,65.87c1.22,1.18,1.52,3.12,2,4.68a56.89,56.89,0,0,1,2.5,12A16,16,0,0,0,131,79.69l-.25.19c-.44-.14-.6-1.22-.63-1.43-.08-.44-.22-.89-.31-1.34-.2-1.11-.43-2.2-.71-3.29-.52-2-1.19-4-1.76-5.94-.23-.78-1.14-3.88-2.39-2.69a4,4,0,0,0-.35.36A1.11,1.11,0,0,1,125.11,65.87Z"/><path class="cls-4" d="M148.45,61.54c-1.15,2.78-3.28,5.07-4.09,8a6.07,6.07,0,0,0,1.57-.61l-.27.09c-.28-.23-.27-.44,0-.64s.47-.74.71-1.1c.8-1.19,1.69-2.32,2.44-3.54.31-.52,1.15-1.71,1-2.38a1.7,1.7,0,0,0-1-1A4.44,4.44,0,0,1,148.45,61.54Z"/><path class="cls-4" d="M146.21,70.81c1.36-.42,3.43.72,4.24-.79l0-.09c-2.12,0-4.32,0-6.15,1.15a15.22,15.22,0,0,0-4.42,4A15.87,15.87,0,0,0,142.48,74l-.27,0,2.36-1.86L145.62,71A6,6,0,0,1,146.21,70.81Z"/><path class="cls-4" d="M138.46,77.41c-1.69.51-3.19,2-4.62,3a38.19,38.19,0,0,0-6.42,5.26c2.08-.93,4.47-1,6.62-1.72,1.61-.57,3.33-1.47,4.9-1a3.29,3.29,0,0,0-.28-.39c-.59-.72-2,0-2.82.47l-2.37.65L129,84.73l5.73-4.3Z"/><path class="cls-4" d="M151.92,74.05a25.16,25.16,0,0,0-7.63.89c1.76.3,3.31,1.5,4.93,2.22a2.09,2.09,0,0,0-.08-.23c-.37-.73-1.4-1.11-2.3-1.45l2.59-.21c.75,0,1.5,0,2.25-.07a40.17,40.17,0,0,1,4.91.25c.74,0,1.09-.72,1.17-1.46C155.86,74.42,153.93,74.1,151.92,74.05Z"/><path class="cls-5" d="M139.43,173c0,4.15-25.86,7.51-57.75,7.51S23.93,177.19,23.93,173s25.86-7.51,57.75-7.51S139.43,168.89,139.43,173Z"/><path class="cls-3" d="M31.83,107.88l2.82.93a6.74,6.74,0,0,0,.44-2.47A38.57,38.57,0,0,1,30,104.9a36.12,36.12,0,0,0-4.25-1.57c-.35-.1-.71-.17-1.08-.24l-.77-.11,0,0a.3.3,0,0,0-.19,0l-8-1.12-2.36-.33a19.07,19.07,0,0,1-3.64-1.76c-2-1.21-3.87-2.59-5.79-3.94-.43-.29-1.84-1.37-2.31-.51-.34.63-.92,1.21-.7,1.95s1.42,1.18,1.92,1.45c1.18.63,2.44,1.12,3.64,1.7.37.18.73.38,1.1.55.32,0,.43.19.31.51a2.66,2.66,0,0,0-.94.34c-.53.3-4.25,1.64-2.44,2.74,1.36.83,2.49-1.07,3.79-1.37.19,0,.39-.08.58-.11l1.38.41,2.78.38c-3.18,1.38-6.42,2.59-9.62,3.93-.88.37-2.68.74-3.19,1.74a1.32,1.32,0,0,0-.11.93c.16.7,1.18,2,2,1.38a35.14,35.14,0,0,1,3.83-2.52c.62-.33,1.24-.68,1.85-1l2.19-1.06c-.56.71-1.22,1.5-1.17,2.26s.94,1,1.57.78,1.06-1,1.49-1.41c1.66-1.54,2.89-4.47,5.56-4.08l4.65.7,6.67.75-4.12,1.24-2.22.61c-.82,0-2.36.1-2.5,1-.09.62-.06,1.72.79,1.75a13.67,13.67,0,0,0,4.45-1.11,8.85,8.85,0,0,0,1.21-.56l2.56-1a7.61,7.61,0,0,1,2.36-.22Z"/><path class="cls-4" d="M2,96.75c2.25,1.69,5.05,2.53,7.09,4.5a5.53,5.53,0,0,1-1.55.26l.26-.06c.12-.32,0-.49-.31-.51-.37-.17-.73-.37-1.1-.55-1.2-.58-2.46-1.07-3.64-1.7-.5-.27-1.74-.83-1.92-1.45a1.61,1.61,0,0,1,.31-1.32A4.52,4.52,0,0,0,2,96.75Z"/><path class="cls-4" d="M8.22,103.16c-1.3.3-2.43,2.2-3.79,1.37l-.08,0a10.87,10.87,0,0,1,5.51-2,14.24,14.24,0,0,1,5.43,1.1,14.48,14.48,0,0,1-2.56.36l.23-.1-2.78-.38-1.38-.41C8.61,103.08,8.41,103.11,8.22,103.16Z"/><path class="cls-4" d="M17.6,104.79c1.6-.39,3.51.1,5.15.24a34.92,34.92,0,0,1,7.68,1.2c-2.12.23-4.06,1.36-6.15,1.76-1.57.3-3.38.39-4.45,1.47a2.94,2.94,0,0,1,0-.44c.14-.86,1.68-.93,2.5-1l2.22-.61,4.12-1.24L22,105.46Z"/><path class="cls-4" d="M5.15,108.48a23.42,23.42,0,0,1,6.57-2.91c-1.27,1.07-2,2.78-2.91,4.13a1.32,1.32,0,0,1-.05-.23c0-.76.61-1.55,1.17-2.26l-2.19,1.06c-.61.35-1.23.7-1.85,1a35.14,35.14,0,0,0-3.83,2.52c-.57.4-1.23-.07-1.64-.62A22.26,22.26,0,0,0,5.15,108.48Z"/><path class="cls-6" d="M129.06,127.53c0,26.88-22.4,48.67-50,48.67s-50-21.79-50-48.67S51.4,78.86,79,78.86,129.06,100.65,129.06,127.53Z"/><path class="cls-7" d="M114.63,153.3c-10.59,8.29-24.43,12.21-37.8,11.63C62.36,164.3,47.39,158.37,38,147a40.28,40.28,0,0,1-8.89-20c0-.3-.07-.61-.11-.91,0,.48,0,1,0,1.46,0,26.88,22.4,48.67,50,48.67,24.74,0,45.29-17.47,49.31-40.43A47.11,47.11,0,0,1,114.63,153.3Z"/><ellipse class="cls-8" cx="75.09" cy="116.18" rx="39.25" ry="33.91"/><path d="M76.26,109.07a2.63,2.63,0,1,1-3-2.21A2.64,2.64,0,0,1,76.26,109.07Z"/><path class="cls-9" d="M75.79,109.14a2.16,2.16,0,1,1-2.46-1.82A2.16,2.16,0,0,1,75.79,109.14Z"/><path class="cls-8" d="M73.46,108.49a.61.61,0,1,1-.7-.52A.61.61,0,0,1,73.46,108.49Z"/><path d="M74.1,124.93a2.63,2.63,0,1,1-3-2.21A2.64,2.64,0,0,1,74.1,124.93Z"/><path class="cls-9" d="M73.63,125a2.16,2.16,0,1,1-2.45-1.81A2.16,2.16,0,0,1,73.63,125Z"/><path class="cls-8" d="M71.3,124.35a.61.61,0,1,1-.7-.51A.6.6,0,0,1,71.3,124.35Z"/><path d="M73.63,141.86a2.63,2.63,0,1,1-3-2.21A2.65,2.65,0,0,1,73.63,141.86Z"/><path class="cls-9" d="M73.16,141.94a2.16,2.16,0,1,1-2.46-1.82A2.16,2.16,0,0,1,73.16,141.94Z"/><path class="cls-8" d="M70.83,141.28a.6.6,0,0,1-.52.69.59.59,0,0,1-.69-.51.61.61,0,0,1,1.21-.18Z"/><path class="cls-6" d="M120.18,166.22s.37-6.75-6.89-4.57-6.85,8.51-2.36,9.46S119.18,171.06,120.18,166.22Z"/><path class="cls-8" d="M113.75,164.72s.14-2.77-2.84-1.88-2.81,3.5-1,3.89S113.33,166.71,113.75,164.72Z"/><path class="cls-8" d="M116.92,162.8s.07-1.4-1.43-.94-1.41,1.75-.48,1.95S116.71,163.8,116.92,162.8Z"/><path class="cls-5" d="M113.05,171.33s.54-6.66-10.22-4.51-10.16,8.38-3.5,9.32C105.79,177,111.56,176.09,113.05,171.33Z"/><path class="cls-8" d="M107.53,170.74s.35-4.23-6.51-2.87-6.47,5.34-2.22,5.94S106.58,173.77,107.53,170.74Z"/><path class="cls-6" d="M123.09,172.72s.39-4.88-7.49-3.31-7.44,6.14-2.56,6.83C117.77,176.9,122,176.2,123.09,172.72Z"/><path class="cls-8" d="M119,171.84s.22-2.81-4.32-1.9-4.29,3.54-1.48,3.93S118.4,173.85,119,171.84Z"/><path class="cls-6" d="M59,166.49s.36-6.76-6.89-4.58-6.85,8.51-2.37,9.46S58,171.32,59,166.49Z"/><path class="cls-8" d="M52.55,165s.15-2.77-2.83-1.87-2.82,3.49-1,3.88S52.14,167,52.55,165Z"/><path class="cls-8" d="M55.72,163.06s.07-1.39-1.42-.94-1.42,1.75-.49,1.95S55.51,164.06,55.72,163.06Z"/><path class="cls-5" d="M51.85,171.59s.54-6.66-10.22-4.5-10.15,8.37-3.5,9.31C44.59,177.31,50.36,176.35,51.85,171.59Z"/><path class="cls-8" d="M46.33,171s.35-4.23-6.5-2.86-6.47,5.33-2.23,5.93S45.38,174,46.33,171Z"/><path class="cls-6" d="M61.89,173s.39-4.88-7.49-3.3-7.44,6.13-2.56,6.82C56.57,177.16,60.8,176.47,61.89,173Z"/><path class="cls-8" d="M57.83,172.1s.23-2.81-4.31-1.9-4.29,3.54-1.48,3.93S57.2,174.11,57.83,172.1Z"/><path class="cls-10" d="M47.27,90.26a7.79,7.79,0,0,1,4.65-.39A13.06,13.06,0,0,1,56,91.77c2.63,1.77,4.86,4.14,7.65,5.66,6.64,3.6,14.6,3.51,21.81,1.94a34.7,34.7,0,0,0,10.47-3.88c1.58-.94,3.09-2,4.63-3a24.58,24.58,0,0,1,4.7-2.68,12.38,12.38,0,0,1,4.42-.78,51.13,51.13,0,0,0-63.24,1.56C46.7,90.49,47,90.37,47.27,90.26Z"/><path class="cls-11" d="M68,24.77,86.62.12s18-2.57,37,16.06c0,0-7.64,30.67-7.9,30.61S68,24.77,68,24.77Z"/><path class="cls-12" d="M86.32,17.75q3.11-5.29,6.5-10.42,1.73-2.61,3.48-5.19c.27-.4.55-.79.84-1.18C95.92.69,94.78.49,93.73.34c-1.88,2.54-4,5-5.88,7.45q-3.75,4.87-7.21,10c-2.21,3.26-4.51,6.48-6.71,9.76L79.43,30Q82.76,23.85,86.32,17.75Z"/><path class="cls-13" d="M123.6,16.18a64.38,64.38,0,0,0-11.95-9.33C108.8,13.32,106.28,19.9,104,26.6c-1.44,4.25-2.9,8.52-4.68,12.65,8.92,4.12,16.28,7.51,16.38,7.54C116,46.85,123.6,16.18,123.6,16.18Z"/><path class="cls-14" d="M115.49,35.06A47.62,47.62,0,0,0,110,31.44c-1.83-1.1-3.63-2.23-5.5-3.25a80.41,80.41,0,0,0-11.76-5.36,85.11,85.11,0,0,0-12.64-3.49,55.37,55.37,0,0,0-6.66-.85l-.64,0L68,24.77s47.4,22,47.66,22c.1,0,1.21-4.16,2.56-9.43C117.3,36.64,116.42,35.81,115.49,35.06Z"/><path class="cls-15" d="M118.26,37.36c-1-.72-1.84-1.55-2.77-2.3A47.62,47.62,0,0,0,110,31.44c-1.83-1.1-3.63-2.23-5.5-3.25-.29-.17-.59-.32-.89-.48-1.32,3.87-2.67,7.77-4.3,11.54,8.92,4.12,16.28,7.51,16.38,7.54S116.91,42.63,118.26,37.36Z"/><path class="cls-16" d="M84.8,20.39c-1.56-.39-3.12-.74-4.69-1.05l-.51-.08c-1.88,2.74-3.81,5.47-5.67,8.24L79.43,30Q82,25.18,84.8,20.39Z"/><path class="cls-11" d="M130.7,58.55c-2.95,8.09-25.45,7.31-50.25-1.74s-42.52-23-39.57-31,25.45-7.31,50.26,1.74S133.65,50.46,130.7,58.55Z"/><path class="cls-17" d="M130.41,59.66c-3,8.09-25.45,7.31-50.25-1.74s-42.52-23-39.56-31S66,19.57,90.85,28.62,133.36,51.57,130.41,59.66Z"/><path class="cls-11" d="M114.83,56.07C113.39,60,100,57.42,84,51.54S54.74,39.68,56.19,35.71s16.9-4.41,33,1.46S116.28,52.1,114.83,56.07Z"/><g class="cls-18"><path class="cls-6" d="M112.23,71c-4.52,17.53-22.8,28-40.81,23.33S42.45,71.69,47,54.16s22.8-28,40.82-23.33S116.75,53.46,112.23,71Z"/><path class="cls-8" d="M108.93,67.53C105.3,81.61,89.05,89.6,72.65,85.36S45.89,66.29,49.52,52.21,69.39,30.14,85.8,34.37,112.55,53.45,108.93,67.53Z"/><path class="cls-10" d="M67.4,39.59a100.12,100.12,0,0,1,20.1,4.08C97.19,46.59,107,51.26,113,59.38a34.1,34.1,0,0,0-57.9-19.67A61.26,61.26,0,0,1,67.4,39.59Z"/><path class="cls-19" d="M80.26,59.88c-.39-2.8-2.75-4-5.57-4.22-3.78-.32-7.6-.57-11.39-.78a58.49,58.49,0,0,1-7.12-.64c-.53-.09-2.72-.43-2.79.47s2.37,1.49,2.91,1.85c1.11.73,2.15,1.53,3.19,2.34,2.16,1.71,4.31,3.43,6.5,5.1s4.91,4.31,8,4.38c3.59.09,6.32-4.34,6.32-7.65A5.77,5.77,0,0,0,80.26,59.88Z"/><path class="cls-20" d="M80.32,60.73a5.77,5.77,0,0,0-.06-.85c-.39-2.8-2.75-4-5.57-4.22s-5.71-.44-8.56-.61c1.1.23,2.2.48,3.29.77.78.21,1.57.37,2.36.54A3.77,3.77,0,0,1,73.4,57a3.86,3.86,0,0,1,1.06,2.72A3.78,3.78,0,0,0,74,56.65a.13.13,0,0,1,.11-.2,5.35,5.35,0,0,1,3.43.56A3.55,3.55,0,0,1,79,59.3,7.81,7.81,0,0,1,77.73,65c-1.08,1.49-3.13,3-5,2-.61-.33-1.23-.65-1.23-1.44,0-1,.85-2,.75-3-.37,1.08-.57,2.53-1.67,3a.81.81,0,0,1-1-.1c-.51-.43-1.07-.78-1.58-1.2-1.08-.89,0-2.21,0-3.32a8.4,8.4,0,0,0-.48-3.65,6.75,6.75,0,0,1-.25,4.23c-.39,1-1,1.7-2,.86A12,12,0,0,0,63.69,61,8.61,8.61,0,0,1,62,59.88a1.82,1.82,0,0,1-.69-1.45,6.47,6.47,0,0,1,.23-1.06,7.44,7.44,0,0,1-.7,1.45.13.13,0,0,1-.21,0c-.64-.58-1.33-1.1-1.91-1.74a.14.14,0,0,1,0-.17,1.35,1.35,0,0,0,.13-1.4c-.16.47-.44,1.12-.88,1.13a2.26,2.26,0,0,1-.66-.28c-.52-.25-.93-.7-1.45-.91s-1.58-.21-2-.68a.52.52,0,0,1-.12-.52.51.51,0,0,0-.33.43c-.07.77,2.37,1.49,2.91,1.85,1.11.73,2.15,1.53,3.19,2.34,2.16,1.71,4.31,3.43,6.5,5.1s4.91,4.31,8,4.38C77.59,68.47,80.32,64,80.32,60.73Z"/><path class="cls-21" d="M75.83,63.24l.08,0a9.71,9.71,0,0,0,1.42-3,3.38,3.38,0,0,0-1-3.35,1.09,1.09,0,0,0-.26,0c-2-.12-3.92-.28-5.89-.45-2.38-.21-4.73-.49-7.08-.93a18.62,18.62,0,0,0-4.74-.56c-.05,0-.28.14-.16.18,3.49.88,7,1.89,10.52,2.6,1.7.34,3.87.3,5.36,1.26a4.5,4.5,0,0,1,1.66,4.24S75.8,63.24,75.83,63.24Z"/><path class="cls-3" d="M58.23,65.53S55.76,78,69.64,82.69c15.08,5.15,26.25-9.15,26.06-16,0,0-3.53,16.39-20.3,15.74C57.23,81.76,58.23,65.53,58.23,65.53Z"/><path d="M69.78,50.47a2.63,2.63,0,1,1-2.35-2.88A2.63,2.63,0,0,1,69.78,50.47Z"/><path class="cls-9" d="M69.31,50.43a2.16,2.16,0,1,1-1.93-2.37A2.16,2.16,0,0,1,69.31,50.43Z"/><path class="cls-8" d="M67.21,49.21A.61.61,0,1,1,66,49.08a.61.61,0,1,1,1.21.13Z"/><path d="M90.36,55.78A2.63,2.63,0,1,1,88,52.89,2.63,2.63,0,0,1,90.36,55.78Z"/><path class="cls-9" d="M89.89,55.73A2.16,2.16,0,1,1,88,53.36,2.16,2.16,0,0,1,89.89,55.73Z"/><path class="cls-8" d="M87.79,54.51a.61.61,0,1,1-1.21-.12.61.61,0,1,1,1.21.12Z"/></g></g></g></g></g></svg>