<svg xmlns="http://www.w3.org/2000/svg" viewBox="0 0 672.77 360.2"><defs><style>.cls-1{isolation:isolate;}.cls-2{fill:#dba861;}.cls-3{fill:#e6ceac;}.cls-4{fill:#a34a30;}.cls-5{fill:#c57852;opacity:0.5;mix-blend-mode:screen;}.cls-6{fill:#ad6e4e;}</style></defs><title>Asset 11</title><g class="cls-1"><g id="Layer_2" data-name="Layer 2"><g id="Layer_1-2" data-name="Layer 1"><rect class="cls-2" y="181.43" width="672.38" height="178.77"/><polygon class="cls-3" points="0 360.2 0 181.43 672.38 181.43 0 360.2"/><path class="cls-4" d="M647,318.36c0,9.65-11.32,17.46-25.22,17.46H50.64c-13.93,0-25.22-7.81-25.22-17.46V223.28c0-9.66,11.29-17.49,25.22-17.49h571.1c13.9,0,25.22,7.83,25.22,17.49Z"/><path class="cls-5" d="M647,222.58v95.07c0,4.67-2.69,8.94-7,12a11.09,11.09,0,0,0,.74-4.23V230.39c0-9.61-11-17.46-24.68-17.46H56.33c-13.66,0-24.71,7.85-24.71,17.46v95.06a10.94,10.94,0,0,0,.8,4.23c-4.33-3.09-7-7.36-7-12V222.58c0-9.65,11.24-17.42,25.17-17.42H621.77C635.67,205.16,647,212.93,647,222.58Z"/><rect class="cls-2" width="672.38" height="178.8"/><polygon class="cls-3" points="0.38 178.8 0.38 0 672.77 0 0.38 178.8"/><path class="cls-6" d="M647,137c0,9.62-11.32,17.45-25.22,17.45H50.64c-13.93,0-25.22-7.83-25.22-17.45V41.87c0-9.65,11.29-17.45,25.22-17.45h571.1c13.9,0,25.22,7.8,25.22,17.45Z"/><path class="cls-5" d="M647,41.23v95c0,4.69-2.69,8.91-7,12.06a11.4,11.4,0,0,0,.74-4.27V49c0-9.65-11-17.5-24.68-17.5H56.33c-13.66,0-24.71,7.85-24.71,17.5v95a11.25,11.25,0,0,0,.8,4.27c-4.33-3.15-7-7.37-7-12.06v-95c0-9.73,11.24-17.5,25.17-17.5H621.77C635.67,23.73,647,31.5,647,41.23Z"/></g></g></g></svg>